<svg xmlns="http://www.w3.org/2000/svg" xmlns:xlink="http://www.w3.org/1999/xlink" version="1.0" id="Layer_1" x="0px" y="0px" viewBox="0 0 150 150" enable-background="new 0 0 150 150">
<g>
	<polygon fill="none" points="84.6,96 84.6,95.8 84.5,96" data-part-id="logo__item--logo_0__0"></polygon>
	<path fill="none" d="M26.9,33.3l-2.2,51c0,0.1,0.1,0.3,0.1,0.4L26,71.6c0,0,0,0,0.1,0l3.3-38.3L26.9,33.3z" data-part-id="logo__item--logo_0__1"></path>
	<polygon fill="none" points="52.1,92 70.1,94.2 54.4,74.2" data-part-id="logo__item--logo_0__2"></polygon>
	<polygon fill="#5CBBA9" points="14.7,41 14.7,41 15.5,40.8" data-part-id="logo__item--logo_0__3"></polygon>
	<path fill="#5CBBA9" d="M14.7,41l-6.8,1.6c-1.3,0.3-2.1,1.6-1.8,2.9l12.8,53.7l-0.8-38L14.7,41z" data-part-id="logo__item--logo_0__4"></path>
	<path fill="#5CBBA9" d="M24.6,87.9l0.3-3.2c0-0.1-0.1-0.3-0.1-0.4L24.6,87.9z" data-part-id="logo__item--logo_0__5"></path>
	<path fill="#047477" d="M22.2,115.7l2.4-27.9l0.2-3.6l2.2-51l2.4,0.2L26,72c0,0,0,0,0,0l3.3-38.6l-9.4,0.1c-1.3,0-2.3,1.1-2.3,2.4   l0.5,25.3l0.8,38l0.4,21.5c0,1.3,1.1,2.3,2.4,2.3l46-1l-43.3-3.7C23.1,118.3,22.1,117.1,22.2,115.7z" data-part-id="logo__item--logo_0__6"></path>
	<path fill="#00AA87" d="M84.6,95.8l0,0.1l-0.1,0l-3.8,4.7l6.5,0.9l0.9-4.7l0.7,0.1l-1,5.4l-7.6-1.1l-2.3,2.8l-7.7-9.9l-18-2.2   l2.3-17.8l-7.1-9L57.4,71l15.5-12.4l9.8,13.8c6.3-5.1,15.8-12.9,21.1-17.2l1.7-20.4c0.1-1.4-0.9-2.6-2.2-2.7l-70.9-6   C31,26,29.8,27,29.7,28.3l-0.4,5.1L26,72c0,0,0,0,0,0c0,0,0-0.2-0.1-0.2l-1.1,13l-0.3,3.1l-2.4,27.8c-0.1,1.4,0.9,2.5,2.2,2.7   l43.3,3.7l27.6,2.3c1.4,0.1,2.6-0.9,2.7-2.3l4-47.5L84.6,95.8z M84.1,60.6l10.5,1.6l-0.1,0.6c-0.3,0.2-0.6,0.4-0.8,0.6l0.1-0.6   L84,61.3L84.1,60.6z M50,96l-8.4-1.2l0.6-5.5l0.7,0.1l-0.5,4.8l7.7,1.1L50,96z M49.6,55.9l10.5,1.3L60,57.9l-9.8-1.2l-0.6,4.6   l-0.7-0.1L49.6,55.9z M30.3,108.6l0-0.1l-0.1,0l6-67.7l0.1-1.1l0,0l0.5-5.9l1.3,0.1l-0.5,5.9l6,0.5l-0.1,1.1l-6-0.5l-0.4,4.3   l2.4,0.2l-0.1,1.1L37,46.1l-0.4,4.8l6,0.5l-0.1,1.1l-6-0.5l-0.4,4.3l2.4,0.2l-0.1,1.1l-2.4-0.2l-0.4,4.8l6.1,0.5l-0.1,1.1l-6.1-0.5   l-0.4,4.3l2.4,0.2l-0.1,1.1l-2.5-0.2l-0.4,4.8l6.1,0.5L40.7,75l-6.1-0.5l-0.4,4.3l2.5,0.2L36.6,80l-2.5-0.2l-0.4,4.8l6.2,0.5   l-0.1,1.1l-6.2-0.5l-0.4,4.3l2.5,0.2l-0.1,1.1L33.1,91l-0.4,4.8l6.2,0.5l-0.1,1.1l-6.2-0.5l-0.4,4.3l2.6,0.2l-0.1,1.1l-2.6-0.2   l-0.4,4.8l5,0.4l0.3-2.8l1.1,0.1l-0.3,2.8l0.1,0l0,0.3l4.1,0.4l0.6-6.8l1.1,0.1l-0.6,6.8l4.8,0.4l0.3-3.1l1.1,0.1l-0.3,3.1l4.3,0.4   l0.6-6.7l1.1,0.1l-0.6,6.7l4.8,0.4l0.3-3.1l1.1,0.1l-0.3,3.1l4.3,0.4l0.6-6.7l1.1,0.1l-0.6,6.7l4.8,0.4l0.3-3l1.1,0.1l-0.3,3   l4.3,0.4l0.6-6.6l1.1,0.1l-0.6,6.6l4.8,0.4l0.3-3l1.1,0.1l-0.3,3l4.3,0.4l0.6-6.6l1.1,0.1l-0.6,6.6l4.8,0.4l0.3-2.9l1.1,0.1   l-0.3,2.9l4.6,0.4c0,0.4-0.1,0.9-0.1,1.3L30.3,108.6z" data-part-id="logo__item--logo_0__7" class="logo__part--active"></path>
	<polygon fill="#FFFFFF" points="50.2,56.7 60,57.9 60.1,57.1 49.6,55.9 48.9,61.2 49.6,61.3" data-part-id="logo__item--logo_0__8"></polygon>
	<path fill="#FFFFFF" d="M93.6,63.5c0.3-0.2,0.5-0.4,0.8-0.6l0.1-0.6l-10.5-1.6L84,61.3l9.7,1.5L93.6,63.5z" data-part-id="logo__item--logo_0__9"></path>
	<polygon fill="#FFFFFF" points="42.4,94.1 42.9,89.4 42.2,89.3 41.6,94.7 50,96 50.1,95.3" data-part-id="logo__item--logo_0__10"></polygon>
	<polygon fill="#FFFFFF" points="87.7,102.4 88.7,97 88,96.8 87.1,101.6 80.7,100.6 80.1,101.3" data-part-id="logo__item--logo_0__11"></polygon>
	<polygon fill="#00AA87" points="60.5,106.8 59.4,106.7 59.1,109.7 60.2,109.8" data-part-id="logo__item--logo_0__12"></polygon>
	<linearGradient id="SVGID_1_" gradientUnits="userSpaceOnUse" x1="30.718" y1="108.2374" x2="99.8404" y2="108.2374">
		<stop offset="0.1264" style="stop-color:#E0E3E3"></stop>
		<stop offset="0.9286" style="stop-color:#C2CACC"></stop>
	</linearGradient>
	<polygon fill="url(#SVGID_1_)" points="60.5,106.8 59.4,106.7 59.1,109.7 60.2,109.8" data-part-id="logo__item--logo_0__13"></polygon>
	<polygon fill="#00AA87" points="49.2,105.7 48.2,105.6 47.9,108.8 49,108.9" data-part-id="logo__item--logo_0__14"></polygon>
	<linearGradient id="SVGID_2_" gradientUnits="userSpaceOnUse" x1="30.7703" y1="107.2474" x2="99.7416" y2="107.2474">
		<stop offset="0.1264" style="stop-color:#E0E3E3"></stop>
		<stop offset="0.9286" style="stop-color:#C2CACC"></stop>
	</linearGradient>
	<polygon fill="url(#SVGID_2_)" points="49.2,105.7 48.2,105.6 47.9,108.8 49,108.9" data-part-id="logo__item--logo_0__15"></polygon>

		<rect x="53.5" y="102.5" transform="matrix(0.996 8.946361e-02 -8.946361e-02 0.996 9.6915 -4.4132)" fill="#00AA87" width="1.1" height="6.8" data-part-id="logo__item--logo_0__16"></rect>
	<linearGradient id="SVGID_3_" gradientUnits="userSpaceOnUse" x1="30.7745" y1="105.9037" x2="99.7479" y2="105.9037">
		<stop offset="0.1264" style="stop-color:#E0E3E3"></stop>
		<stop offset="0.9286" style="stop-color:#C2CACC"></stop>
	</linearGradient>
	<polygon fill="url(#SVGID_3_)" points="54.9,102.6 53.8,102.5 53.2,109.2 54.3,109.3" data-part-id="logo__item--logo_0__17"></polygon>
	<polygon fill="#00AA87" points="43.7,101.6 42.6,101.5 42,108.3 43.1,108.3" data-part-id="logo__item--logo_0__18"></polygon>
	<linearGradient id="SVGID_4_" gradientUnits="userSpaceOnUse" x1="30.7525" y1="104.9135" x2="99.7962" y2="104.9135">
		<stop offset="0.1264" style="stop-color:#E0E3E3"></stop>
		<stop offset="0.9286" style="stop-color:#C2CACC"></stop>
	</linearGradient>
	<polygon fill="url(#SVGID_4_)" points="43.7,101.6 42.6,101.5 42,108.3 43.1,108.3" data-part-id="logo__item--logo_0__19"></polygon>
	<polygon fill="#00AA87" points="38,104.7 37,104.6 36.7,107.5 37.8,107.6" data-part-id="logo__item--logo_0__20"></polygon>
	<linearGradient id="SVGID_5_" gradientUnits="userSpaceOnUse" x1="30.7605" y1="106.0896" x2="99.7298" y2="106.0896">
		<stop offset="0.1264" style="stop-color:#E0E3E3"></stop>
		<stop offset="0.9286" style="stop-color:#C2CACC"></stop>
	</linearGradient>
	<polygon fill="url(#SVGID_5_)" points="38,104.7 37,104.6 36.7,107.5 37.8,107.6" data-part-id="logo__item--logo_0__21"></polygon>
	<polygon fill="#00AA87" points="82.9,108.8 81.8,108.7 81.6,111.7 82.6,111.8" data-part-id="logo__item--logo_0__22"></polygon>
	<linearGradient id="SVGID_6_" gradientUnits="userSpaceOnUse" x1="30.7125" y1="110.217" x2="99.8035" y2="110.217">
		<stop offset="0.1264" style="stop-color:#E0E3E3"></stop>
		<stop offset="0.9286" style="stop-color:#C2CACC"></stop>
	</linearGradient>
	<polygon fill="url(#SVGID_6_)" points="82.9,108.8 81.8,108.7 81.6,111.7 82.6,111.8" data-part-id="logo__item--logo_0__23"></polygon>
	<polygon fill="#00AA87" points="88.6,105.6 87.5,105.5 86.9,112.1 88,112.2" data-part-id="logo__item--logo_0__24"></polygon>
	<linearGradient id="SVGID_7_" gradientUnits="userSpaceOnUse" x1="30.703" y1="108.8745" x2="99.8007" y2="108.8745">
		<stop offset="0.1264" style="stop-color:#E0E3E3"></stop>
		<stop offset="0.9286" style="stop-color:#C2CACC"></stop>
	</linearGradient>
	<polygon fill="url(#SVGID_7_)" points="88.6,105.6 87.5,105.5 86.9,112.1 88,112.2" data-part-id="logo__item--logo_0__25"></polygon>

		<rect x="92.9" y="109.7" transform="matrix(0.996 8.894704e-02 -8.894704e-02 0.996 10.2622 -7.8717)" fill="#00AA87" width="1.1" height="2.9" data-part-id="logo__item--logo_0__26"></rect>
	<linearGradient id="SVGID_8_" gradientUnits="userSpaceOnUse" x1="30.7646" y1="111.2084" x2="99.7905" y2="111.2084">
		<stop offset="0.1264" style="stop-color:#E0E3E3"></stop>
		<stop offset="0.9286" style="stop-color:#C2CACC"></stop>
	</linearGradient>
	<polygon fill="url(#SVGID_8_)" points="94.1,109.8 93.1,109.7 92.8,112.6 93.9,112.7" data-part-id="logo__item--logo_0__27"></polygon>
	<polygon fill="#00AA87" points="66.1,103.6 65.1,103.5 64.5,110.2 65.5,110.3" data-part-id="logo__item--logo_0__28"></polygon>
	<linearGradient id="SVGID_9_" gradientUnits="userSpaceOnUse" x1="30.79" y1="106.8929" x2="99.7554" y2="106.8929">
		<stop offset="0.1264" style="stop-color:#E0E3E3"></stop>
		<stop offset="0.9286" style="stop-color:#C2CACC"></stop>
	</linearGradient>
	<polygon fill="url(#SVGID_9_)" points="66.1,103.6 65.1,103.5 64.5,110.2 65.5,110.3" data-part-id="logo__item--logo_0__29"></polygon>
	<polygon fill="#00AA87" points="71.7,107.8 70.6,107.7 70.3,110.7 71.4,110.8" data-part-id="logo__item--logo_0__30"></polygon>
	<linearGradient id="SVGID_10_" gradientUnits="userSpaceOnUse" x1="30.7558" y1="109.228" x2="99.79" y2="109.228">
		<stop offset="0.1264" style="stop-color:#E0E3E3"></stop>
		<stop offset="0.9286" style="stop-color:#C2CACC"></stop>
	</linearGradient>
	<polygon fill="url(#SVGID_10_)" points="71.7,107.8 70.6,107.7 70.3,110.7 71.4,110.8" data-part-id="logo__item--logo_0__31"></polygon>
	<polygon fill="#00AA87" points="77.4,104.6 76.3,104.5 75.7,111.2 76.8,111.2" data-part-id="logo__item--logo_0__32"></polygon>
	<linearGradient id="SVGID_11_" gradientUnits="userSpaceOnUse" x1="30.8007" y1="107.8843" x2="99.7661" y2="107.8843">
		<stop offset="0.1264" style="stop-color:#E0E3E3"></stop>
		<stop offset="0.9286" style="stop-color:#C2CACC"></stop>
	</linearGradient>
	<polygon fill="url(#SVGID_11_)" points="77.4,104.6 76.3,104.5 75.7,111.2 76.8,111.2" data-part-id="logo__item--logo_0__33"></polygon>
	<path fill="#FFFFFF" d="M93.9,112.7l-1.1-0.1l-4.8-0.4l-1.1-0.1l-4.3-0.4l-1.1-0.1l-4.8-0.4l-1.1-0.1l-4.3-0.4l-1.1-0.1l-4.8-0.4   l-1.1-0.1l-4.3-0.4l-1.1-0.1l-4.8-0.4l-1.1-0.1l-4.3-0.4l-1.1-0.1l-4.8-0.4l-1.1-0.1l-4.1-0.4l0-0.3l-0.1,0l-1.1-0.1l-5-0.4   l0.4-4.8l2.6,0.2l0.1-1.1l-2.6-0.2l0.4-4.3l6.2,0.5l0.1-1.1l-6.2-0.5l0.4-4.8l2.5,0.2l0.1-1.1l-2.5-0.2l0.4-4.3l6.2,0.5l0.1-1.1   l-6.2-0.5l0.4-4.8l2.5,0.2l0.1-1.1l-2.5-0.2l0.4-4.3l6.1,0.5l0.1-1.1l-6.1-0.5l0.4-4.8l2.5,0.2l0.1-1.1l-2.4-0.2l0.4-4.3l6.1,0.5   l0.1-1.1l-6.1-0.5l0.4-4.8l2.4,0.2l0.1-1.1l-2.4-0.2l0.4-4.3l6,0.5l0.1-1.1l-6-0.5l0.4-4.8l2.4,0.2l0.1-1.1l-2.4-0.2l0.4-4.3l6,0.5   l0.1-1.1l-6-0.5l0.5-5.9l-1.3-0.1l-0.5,5.9l0,0l-0.1,1.1l-6,67.7l0.1,0l0,0.1l68,5.9c0-0.4,0-0.9,0.1-1.3L93.9,112.7z" data-part-id="logo__item--logo_0__34"></path>
	<polygon fill="#8d8d8d" points="54.4,74.2 70.1,94.2 77.8,104.1 80.1,101.3 80.7,100.6 84.5,96 84.6,95.8 102.1,74.7 143,25.2    79.1,83.7 57.4,71 47.3,65.1  " data-part-id="logo__item--logo_0__35"></polygon>
</g>
</svg>
